:SAMPLES-PER-SECOND 30
:FULLY-SPECIFIED
:DEGREES
167
root  -1.65007 40.2673 -39.7353 20.7091 78.0997 26.223
RightUpLeg  -18.9345 0.612884 -5.83329
RightLeg  54.3153 -3.63051 -5.83119
RightFoot  5.0286 -0.0670816 0.704472
RightToes  -4.65663e-010 0 -3.6325e-017
Spine  8.55292 -1.18768 -0.91264
Spine1  6.15493 -1.03695 -1.94025
HEad  -9.78961 0.788486 -1.79913
LeftShoulder1  8.1152 -11.4902 -47.2229
LeftArm  -6.99363 8.76819 -24.0464
LeftForeArm  27.2298 -13.1115 -5.47183
LeftHand  -0.244104 0.0205437 5.32207
RightShoulder  5.81947 9.17551 39.7728
RightArm  3.28599 -16.1206 30.9956
RightForeArm  13.5013 12.4122 7.38491
RightHand  -0.270331 -2.17566 -9.48701
LeftUpLeg  1.08363 5.38106 -4.49796
LeftLeg  10.9977 12.7365 -2.675
LeftFoot  -7.30497 -0.0330079 2.18501
LeftToes  -7.27628e-011 -1.6005e-012 -1.37987e-011
168
root  -0.221491 40.2412 -39.7364 22.3614 79.2181 28.0486
RightUpLeg  -20.4507 -1.56383 -4.55819
RightLeg  45.2152 -4.3674 -5.01514
RightFoot  2.71739 -0.0930964 0.936847
RightToes  -4.65663e-010 0 -3.6325e-017
Spine  9.19808 -1.74039 -2.36521
Spine1  5.55946 -2.15496 -0.213387
HEad  -9.6919 0.813739 -1.24608
LeftShoulder1  7.97828 -11.4208 -46.6289
LeftArm  -6.05045 5.70298 -23.8826
LeftForeArm  24.1169 -16.4642 -4.75515
LeftHand  -0.244104 0.0205437 5.32207
RightShoulder  5.56092 8.89035 38.7909
RightArm  9.01188 -18.9824 30.0422
RightForeArm  5.55521 17.3234 6.21495
RightHand  -0.342666 -1.69281 -10.5876
LeftUpLeg  4.04783 4.37233 -4.40863
LeftLeg  10.0202 12.5463 -3.48294
LeftFoot  -8.83122 0.00680403 2.08798
LeftToes  -7.27628e-011 -1.6005e-012 -1.37987e-011
169
root  1.24918 40.0301 -39.6836 27.1275 79.9332 32.9653
RightUpLeg  -20.7335 -5.15374 -3.60664
RightLeg  33.7886 -4.68613 -3.70197
RightFoot  1.03672 -0.280448 2.63615
RightToes  -4.65663e-010 0 -3.6325e-017
Spine  9.53297 -2.12213 -4.42893
Spine1  5.1231 -3.03541 1.22052
HEad  -9.82572 0.775552 -0.401085
LeftShoulder1  7.85643 -11.3384 -46.1594
LeftArm  -5.48985 2.50066 -23.4003
LeftForeArm  22.1785 -19.8252 -4.05156
LeftHand  -0.244104 0.0205437 5.32207
RightShoulder  5.385 8.67541 38.1642
RightArm  11.0898 -20.8625 29.2406
RightForeArm  2.11876 19.839 5.39848
RightHand  -0.442652 -1.06075 -11.8134
LeftUpLeg  6.33602 4.46472 -4.84688
LeftLeg  10.6474 11.5066 -3.69771
LeftFoot  -11.1579 0.064493 1.91738
LeftToes  -7.27628e-011 -1.6005e-012 -1.37987e-011
170
root  2.7681 39.808 -39.6123 32.9226 80.3139 38.787
RightUpLeg  -20.0455 -10.4353 -2.22326
RightLeg  20.6211 -4.83484 -1.85033
RightFoot  0.513364 -0.362656 3.51777
RightToes  -4.65663e-010 0 -3.6325e-017
Spine  9.38206 -2.41195 -6.18649
Spine1  5.02649 -3.68335 2.57505
HEad  -10.1947 0.730305 0.668338
LeftShoulder1  7.82098 -11.3622 -45.8688
LeftArm  -6.12517 -0.535166 -22.6068
LeftForeArm  21.9986 -22.8877 -3.82891
LeftHand  -0.244104 0.0205437 5.32207
RightShoulder  5.25053 8.48705 37.7529
RightArm  9.51876 -21.7325 28.9062
RightForeArm  2.71532 19.3605 5.50571
RightHand  -0.519484 -0.554311 -12.473
LeftUpLeg  8.9506 4.44002 -5.53147
LeftLeg  10.5244 10.694 -3.85663
LeftFoot  -13.1704 0.111284 1.99325
LeftToes  -7.27628e-011 -1.6005e-012 -1.37987e-011
171
root  4.33188 39.5786 -39.5295 38.2027 80.3914 44.0533
RightUpLeg  -18.3061 -11.8689 -2.2051
RightLeg  6.77701 -8.41509 2.10807
RightFoot  0.159178 -0.381373 3.79056
RightToes  -4.65663e-010 0 -3.6325e-017
Spine  8.91906 -2.60993 -7.30946
Spine1  5.14915 -4.09718 3.59263
HEad  -10.0154 -0.113946 1.55614
LeftShoulder1  7.85889 -11.4724 -45.7486
LeftArm  -7.4784 -3.17646 -21.7142
LeftForeArm  22.9326 -25.3833 -4.20802
LeftHand  -0.244104 0.0205437 5.32207
RightShoulder  5.16485 8.35749 37.5172
RightArm  4.75856 -22.0096 28.955
RightForeArm  6.20071 16.4734 6.15743
RightHand  -0.521295 -0.54543 -12.4843
LeftUpLeg  11.9302 4.37651 -6.13635
LeftLeg  9.66196 10.0363 -4.19329
LeftFoot  -14.7883 0.143276 1.83942
LeftToes  -7.27628e-011 -1.6005e-012 -1.37987e-011
172
root  6.00176 39.2115 -39.4114 42.7164 80.0757 48.6513
RightUpLeg  -16.3753 -6.34057 -4.47842
RightLeg  -3.95338 -16.5466 6.91253
RightFoot  -1.06967 -0.461917 5.12263
RightToes  -4.65663e-010 0 -3.6325e-017
Spine  8.32435 -2.70127 -8.0986
Spine1  5.08683 -4.20143 3.91024
HEad  -9.95574 -1.27115 2.44294
LeftShoulder1  7.88385 -11.5492 -45.6575
LeftArm  -8.34958 -5.30574 -21.1553
LeftForeArm  23.8115 -27.3318 -4.60093
LeftHand  -0.244104 0.0205437 5.32207
RightShoulder  5.14599 8.31441 37.5161
RightArm  -2.14326 -21.9968 29.1429
RightForeArm  11.1242 12.348 6.57855
RightHand  -0.454599 -1.04281 -12.0774
LeftUpLeg  14.5991 4.81013 -6.55915
LeftLeg  10.1167 9.11461 -4.46647
LeftFoot  -16.7534 0.145387 0.970055
LeftToes  -7.27628e-011 -1.6005e-012 -1.37987e-011
173
root  7.7352 38.8163 -39.2686 45.0473 79.638 51.0258
RightUpLeg  -16.6306 -6.30955 -3.92426
RightLeg  -5.69864 -18.1246 7.54036
RightFoot  -3.32289 -0.462211 6.18019
RightToes  -4.65663e-010 0 -3.6325e-017
Spine  7.70763 -2.75019 -8.21464
Spine1  4.97305 -4.14569 3.81216
HEad  -10.1869 -2.29724 3.07889
LeftShoulder1  7.87191 -11.5688 -45.5248
LeftArm  -9.12705 -6.52857 -21.1099
LeftForeArm  24.8741 -29.1964 -4.96545
LeftHand  -0.244104 0.0205437 5.32207
RightShoulder  5.18646 8.35346 37.707
RightArm  -7.96701 -21.703 29.4338
RightForeArm  13.9199 8.27841 5.97913
RightHand  -0.388498 -1.5785 -11.7083
LeftUpLeg  16.8118 6.05455 -6.59011
LeftLeg  11.8042 7.65824 -4.25896
LeftFoot  -18.2963 0.0962834 -0.23294
LeftToes  -7.27628e-011 -1.6005e-012 -1.37987e-011
